{
  "accessors": [
    {
      "bufferView": 2,
      "componentType": 5126,
      "count": 2,
      "max": [
        0.4643610119819641,
        -1.8625210523605347,
        2.5443320274353027
      ],
      "min": [
        0.45592200756073,
        -1.8680590391159058,
        2.527951955795288
      ],
      "type": "VEC3"
    },
    {
      "bufferView": 1,
      "componentType": 5126,
      "count": 2,
      "max": [
        0.0,
        0.0
      ],
      "min": [
        0.0,
        0.0
      ],
      "type": "VEC2"
    },
    {
      "bufferView": 0,
      "componentType": 5125,
      "count": 2,
      "type": "SCALAR"
    },
    {
      "bufferView": 2,
      "byteOffset": 24,
      "componentType": 5126,
      "count": 40982,
      "max": [
        1.0292370319366455,
        2.0715138912200928,
        2.609083890914917
      ],
      "min": [
        -1.040653944015503,
        -0.037863001227378845,
        -0.12625999748706818
      ],
      "type": "VEC3"
    },
    {
      "bufferView": 2,
      "byteOffset": 491808,
      "componentType": 5126,
      "count": 40982,
      "max": [
        0.9999113082885742,
        0.999826967716217,
        0.9997169375419617
      ],
      "min": [
        -0.9999610185623169,
        -0.9998934268951416,
        -0.999861478805542
      ],
      "type": "VEC3"
    },
    {
      "bufferView": 1,
      "byteOffset": 16,
      "componentType": 5126,
      "count": 40982,
      "max": [
        0.9822099804878235,
        0.9998610019683838
      ],
      "min": [
        0.0,
        0.0
      ],
      "type": "VEC2"
    },
    {
      "bufferView": 0,
      "byteOffset": 8,
      "componentType": 5125,
      "count": 233961,
      "type": "SCALAR"
    },
    {
      "bufferView": 2,
      "byteOffset": 983592,
      "componentType": 5126,
      "count": 40945,
      "max": [
        2.314811944961548,
        0.16544599831104279,
        3.2381579875946045
      ],
      "min": [
        0.2066430002450943,
        -1.9776819944381714,
        0.5766130089759827
      ],
      "type": "VEC3"
    },
    {
      "bufferView": 2,
      "byteOffset": 1474932,
      "componentType": 5126,
      "count": 40945,
      "max": [
        0.9999289512634277,
        0.9998704195022583,
        0.9996406435966492
      ],
      "min": [
        -0.9999198913574219,
        -0.9999451637268066,
        -0.9998381733894348
      ],
      "type": "VEC3"
    },
    {
      "bufferView": 1,
      "byteOffset": 327872,
      "componentType": 5126,
      "count": 40945,
      "max": [
        0.9822099804878235,
        0.9997599720954895
      ],
      "min": [
        0.0,
        0.0
      ],
      "type": "VEC2"
    },
    {
      "bufferView": 0,
      "byteOffset": 935852,
      "componentType": 5125,
      "count": 233877,
      "type": "SCALAR"
    }
  ],
  "asset": {
    "extras": {
      "author": "ivandrodejesues908 (https://sketchfab.com/ivandrodejesues908)",
      "license": "CC-BY-NC-SA-4.0 (http://creativecommons.org/licenses/by-nc-sa/4.0/)",
      "source": "https://sketchfab.com/3d-models/vans-shoes-rock-haters-5f1b57feaaff4078ae54dc630a65547d",
      "title": "Vans Shoes \"rock haters\""
    },
    "generator": "Sketchfab-13.46.0",
    "version": "2.0"
  },
  "bufferViews": [
    {
      "buffer": 0,
      "byteLength": 1871360,
      "name": "floatBufferViews",
      "target": 34963
    },
    {
      "buffer": 0,
      "byteLength": 655432,
      "byteOffset": 1871360,
      "byteStride": 8,
      "name": "floatBufferViews",
      "target": 34962
    },
    {
      "buffer": 0,
      "byteLength": 1966272,
      "byteOffset": 2526792,
      "byteStride": 12,
      "name": "floatBufferViews",
      "target": 34962
    }
  ],
  "buffers": [
    {
      "byteLength": 4493064,
      "uri": "rock.bin"
    }
  ],
  "images": [
    {
      "uri": "textures/Blue_Vans_Shoe_baseColor.jpeg"
    }
  ],
  "materials": [
    {
      "name": "Blue_Vans_Shoe",
      "pbrMetallicRoughness": {
        "baseColorTexture": {
          "index": 0
        },
        "roughnessFactor": 0.5958113396155111
      }
    }
  ],
  "meshes": [
    {
      "name": "Object_0",
      "primitives": [
        {
          "attributes": {
            "POSITION": 0,
            "TEXCOORD_0": 1
          },
          "indices": 2,
          "material": 0,
          "mode": 1
        }
      ]
    },
    {
      "name": "Object_1",
      "primitives": [
        {
          "attributes": {
            "NORMAL": 4,
            "POSITION": 3,
            "TEXCOORD_0": 5
          },
          "indices": 6,
          "material": 0,
          "mode": 4
        }
      ]
    },
    {
      "name": "Object_2",
      "primitives": [
        {
          "attributes": {
            "NORMAL": 8,
            "POSITION": 7,
            "TEXCOORD_0": 9
          },
          "indices": 10,
          "material": 0,
          "mode": 4
        }
      ]
    }
  ],
  "nodes": [
    {
      "children": [
        1
      ],
      "matrix": [
        1.0,
        0.0,
        0.0,
        0.0,
        0.0,
        2.220446049250313e-16,
        -1.0,
        0.0,
        0.0,
        1.0,
        2.220446049250313e-16,
        0.0,
        0.0,
        0.0,
        0.0,
        1.0
      ],
      "name": "Sketchfab_model"
    },
    {
      "children": [
        2,
        3,
        4
      ],
      "name": "vans rock hater.obj.cleaner.materialmerger.gles"
    },
    {
      "mesh": 0,
      "name": "Object_2"
    },
    {
      "mesh": 1,
      "name": "Object_3"
    },
    {
      "mesh": 2,
      "name": "Object_4"
    }
  ],
  "samplers": [
    {
      "magFilter": 9729,
      "minFilter": 9987,
      "wrapS": 10497,
      "wrapT": 10497
    }
  ],
  "scene": 0,
  "scenes": [
    {
      "name": "Sketchfab_Scene",
      "nodes": [
        0
      ]
    }
  ],
  "textures": [
    {
      "sampler": 0,
      "source": 0
    }
  ]
}
