{
  "accessors": [
    {
      "bufferView": 2,
      "componentType": 5126,
      "count": 40968,
      "max": [
        0.6682530045509338,
        3.252811908721924,
        2.2060348987579346
      ],
      "min": [
        -1.2339999675750732,
        -2.0257630348205566,
        0.04679600149393082
      ],
      "type": "VEC3"
    },
    {
      "bufferView": 2,
      "byteOffset": 491616,
      "componentType": 5126,
      "count": 40968,
      "max": [
        0.9999992847442627,
        0.999902606010437,
        0.9999984502792358
      ],
      "min": [
        -0.9999929666519165,
        -0.999745786190033,
        -0.9999927282333374
      ],
      "type": "VEC3"
    },
    {
      "bufferView": 3,
      "componentType": 5126,
      "count": 40968,
      "max": [
        0.9994585514068604,
        0.9999988675117493,
        0.9993801116943359,
        1.0
      ],
      "min": [
        -0.9998672008514404,
        -0.9998903274536133,
        -0.9999954104423523,
        -1.0
      ],
      "type": "VEC4"
    },
    {
      "bufferView": 1,
      "componentType": 5126,
      "count": 40968,
      "max": [
        0.9822099804878235,
        0.9998610019683838
      ],
      "min": [
        0.0,
        0.0
      ],
      "type": "VEC2"
    },
    {
      "bufferView": 0,
      "componentType": 5125,
      "count": 233961,
      "type": "SCALAR"
    }
  ],
  "asset": {
    "extras": {
      "author": "Lassi Kaukonen (https://sketchfab.com/thesidekick)",
      "license": "CC-BY-4.0 (http://creativecommons.org/licenses/by/4.0/)",
      "source": "https://sketchfab.com/3d-models/unused-blue-vans-shoe-96baa4684df7415ba8ba87d39bd1c2ee",
      "title": "Unused Blue Vans Shoe"
    },
    "generator": "Sketchfab-12.68.0",
    "version": "2.0"
  },
  "bufferViews": [
    {
      "buffer": 0,
      "byteLength": 935844,
      "name": "floatBufferViews",
      "target": 34963
    },
    {
      "buffer": 0,
      "byteLength": 327744,
      "byteOffset": 935844,
      "byteStride": 8,
      "name": "floatBufferViews",
      "target": 34962
    },
    {
      "buffer": 0,
      "byteLength": 983232,
      "byteOffset": 1263588,
      "byteStride": 12,
      "name": "floatBufferViews",
      "target": 34962
    },
    {
      "buffer": 0,
      "byteLength": 655488,
      "byteOffset": 2246820,
      "byteStride": 16,
      "name": "floatBufferViews",
      "target": 34962
    }
  ],
  "buffers": [
    {
      "byteLength": 2902308,
      "uri": "shoe.bin"
    }
  ],
  "images": [
    {
      "uri": "textures/Blue_Vans_Shoe_baseColor.jpeg"
    },
    {
      "uri": "textures/Blue_Vans_Shoe_metallicRoughness.png"
    },
    {
      "uri": "textures/Blue_Vans_Shoe_normal.png"
    }
  ],
  "materials": [
    {
      "doubleSided": true,
      "emissiveFactor": [
        0.3211247651418877,
        0.3211247651418877,
        0.3211247651418877
      ],
      "emissiveTexture": {
        "index": 0
      },
      "name": "Blue_Vans_Shoe",
      "normalTexture": {
        "index": 2
      },
      "occlusionTexture": {
        "index": 1
      },
      "pbrMetallicRoughness": {
        "baseColorTexture": {
          "index": 0
        },
        "metallicFactor": 0.0,
        "metallicRoughnessTexture": {
          "index": 1
        }
      }
    }
  ],
  "meshes": [
    {
      "name": "Object_0",
      "primitives": [
        {
          "attributes": {
            "NORMAL": 1,
            "POSITION": 0,
            "TANGENT": 2,
            "TEXCOORD_0": 3
          },
          "indices": 4,
          "material": 0,
          "mode": 4
        }
      ]
    }
  ],
  "nodes": [
    {
      "children": [
        1
      ],
      "matrix": [
        1.0,
        0.0,
        0.0,
        0.0,
        0.0,
        2.220446049250313e-16,
        -1.0,
        0.0,
        0.0,
        1.0,
        2.220446049250313e-16,
        0.0,
        0.0,
        0.0,
        0.0,
        1.0
      ],
      "name": "Sketchfab_model"
    },
    {
      "children": [
        2
      ],
      "name": "Blue_Vans_Shoe_SF.obj.cleaner.materialmerger.gles"
    },
    {
      "mesh": 0,
      "name": "Object_2"
    }
  ],
  "samplers": [
    {
      "magFilter": 9729,
      "minFilter": 9987,
      "wrapS": 10497,
      "wrapT": 10497
    }
  ],
  "scene": 0,
  "scenes": [
    {
      "name": "Sketchfab_Scene",
      "nodes": [
        0
      ]
    }
  ],
  "textures": [
    {
      "sampler": 0,
      "source": 0
    },
    {
      "sampler": 0,
      "source": 1
    },
    {
      "sampler": 0,
      "source": 2
    }
  ]
}
